<?xml version="1.0" standalone="no"?>
<!DOCTYPE svg PUBLIC "-//W3C//DTD SVG 20010904//EN"
 "http://www.w3.org/TR/2001/REC-SVG-20010904/DTD/svg10.dtd">
<svg version="1.0" xmlns="http://www.w3.org/2000/svg"
 width="788.000000pt" height="854.000000pt" viewBox="0 0 788.000000 854.000000"
 preserveAspectRatio="xMidYMid meet">

<g transform="translate(0.000000,854.000000) scale(0.100000,-0.100000)"
fill="#000000" stroke="none">
<path d="M3855 8289 c-366 -157 -990 -372 -1885 -649 -162 -50 -329 -102 -370
-115 -41 -13 -154 -47 -250 -75 -96 -29 -240 -71 -320 -95 -80 -24 -213 -62
-297 -85 l-152 -43 5 -916 c5 -1139 13 -1300 85 -1776 134 -888 412 -1616 892
-2335 234 -350 630 -788 952 -1052 419 -344 906 -643 1364 -838 l123 -52 72
28 c104 40 408 185 538 255 495 269 848 536 1237 935 297 305 565 663 795
1063 136 235 296 572 296 620 0 12 4 21 9 21 5 0 24 37 41 83 193 499 312
1029 382 1697 20 192 22 270 25 1234 2 566 1 1032 -4 1037 -4 4 -219 71 -478
149 -258 78 -594 181 -745 230 -151 48 -412 132 -580 185 -554 176 -1001 331
-1356 469 -121 47 -225 86 -230 86 -5 -1 -72 -28 -149 -61z m236 -323 c47 -32
73 -86 66 -138 -6 -46 -46 -102 -88 -123 l-29 -16 0 -441 c0 -439 0 -442 22
-465 31 -33 28 -80 -6 -110 -33 -28 -65 -29 -94 -3 -34 32 -38 67 -13 100 21
29 21 36 21 480 l0 450 -22 9 c-71 28 -109 131 -74 199 16 30 53 66 76 75 40
14 106 6 141 -17z m-613 -267 l-3 -70 -200 -66 c-314 -103 -730 -235 -1100
-349 -187 -58 -443 -138 -570 -179 -126 -40 -303 -96 -392 -124 l-163 -51 -2
-301 -3 -300 -62 56 -63 57 0 297 0 298 63 17 c34 9 269 82 522 162 253 80
561 177 685 216 550 171 1145 360 1220 387 30 11 59 20 63 21 4 0 7 -32 5 -71z
m1467 -54 c204 -64 429 -135 500 -157 72 -22 162 -50 200 -63 39 -13 131 -43
205 -65 141 -44 551 -175 975 -311 l250 -81 -3 -298 -3 -298 -64 -57 -65 -56
-2 302 -3 303 -49 19 c-28 10 -237 78 -465 152 -392 126 -521 167 -1056 335
-121 38 -356 113 -522 167 l-303 98 0 68 c0 61 2 68 18 63 9 -3 184 -58 387
-121z m-1185 -35 c0 -5 -8 -10 -17 -10 -25 0 -63 -40 -63 -67 0 -28 41 -57 70
-48 12 4 20 2 20 -5 0 -6 11 -15 25 -20 l25 -10 0 -144 0 -145 -56 -63 -56
-63 5 -253 c2 -139 2 -254 -2 -256 -3 -2 -21 -7 -38 -11 l-33 -7 0 280 0 279
50 57 50 57 0 124 0 125 -34 14 c-41 17 -56 42 -56 91 0 46 36 85 80 85 16 0
30 -4 30 -10z m579 -16 c58 -48 32 -141 -43 -160 l-26 -6 0 -127 0 -127 55
-54 55 -54 0 -271 c0 -150 -2 -274 -5 -276 -2 -3 -20 -3 -40 -1 l-35 4 0 260
0 260 -55 60 -55 59 0 151 c0 141 1 150 20 155 14 4 20 14 20 31 l0 26 16 -22
c29 -42 84 -17 84 39 0 25 -6 33 -40 48 -22 10 -37 21 -33 24 14 15 53 6 82
-19z m-984 -184 c65 -40 85 -138 41 -202 l-24 -36 32 -33 31 -34 -3 -332 -3
-333 -35 0 -34 0 0 195 0 195 -99 0 c-55 0 -102 -4 -105 -9 -3 -4 3 -16 14
-26 48 -43 2 -145 -65 -145 -25 0 -40 8 -59 31 -14 17 -26 38 -26 47 0 26 36
79 58 86 29 10 35 35 16 64 -9 14 -55 65 -101 113 -78 81 -87 87 -116 82 -51
-8 -87 27 -87 83 0 56 25 84 75 84 46 0 85 -37 85 -79 0 -25 20 -51 118 -151
l118 -120 87 0 87 0 0 101 c0 91 -2 104 -23 128 -12 15 -28 26 -35 23 -27 -9
-84 10 -117 39 -135 119 17 323 170 229z m1441 11 c140 -64 95 -274 -58 -274
-62 0 -78 -32 -78 -156 l0 -101 88 0 87 0 118 118 c94 94 117 123 117 145 0
18 11 39 29 58 58 57 141 25 141 -55 0 -35 -30 -75 -58 -77 -9 0 -29 -2 -43
-2 -19 -2 -53 -31 -127 -108 -56 -59 -102 -111 -102 -116 0 -6 16 -24 35 -42
29 -26 35 -38 35 -72 0 -45 -34 -89 -70 -89 -29 0 -76 26 -84 45 -11 29 -6 81
9 101 8 10 15 22 15 27 0 4 -43 7 -95 7 l-95 0 0 -196 0 -196 -22 6 c-13 3
-31 6 -40 6 -17 0 -18 22 -18 326 l0 325 31 39 31 39 -23 33 c-50 69 -23 174
53 211 43 21 74 21 124 -2z m-2155 -260 c72 -73 -9 -199 -103 -160 -63 26 -75
104 -24 155 44 44 86 46 127 5z m2858 18 c61 -22 79 -99 34 -148 -29 -31 -38
-34 -86 -32 -87 4 -105 141 -22 177 37 16 35 16 74 3z m-3605 -240 l33 -39
501 0 502 0 0 -45 0 -45 -509 7 -509 6 -32 -26 c-70 -59 -170 -12 -170 80 0
41 34 91 67 99 15 3 33 7 38 8 22 6 47 -9 79 -45z m4376 22 c51 -37 51 -112 0
-162 -37 -38 -92 -40 -135 -5 l-30 25 -496 -6 c-273 -4 -503 -4 -511 -1 -10 4
-13 18 -10 47 l4 41 503 0 503 0 12 31 c24 57 103 72 160 30z m-4829 -164 c14
-9 36 -35 48 -58 73 -129 -70 -277 -205 -213 -47 22 -76 67 -82 124 -13 133
128 219 239 147z m5289 1 c72 -50 99 -131 65 -202 -50 -106 -214 -114 -275
-13 -25 40 -26 110 -2 157 38 77 142 105 212 58z m-3743 -301 l144 -159 -46
-35 -47 -35 -23 22 c-23 21 -23 24 -8 47 16 24 15 25 -91 132 -91 92 -112 108
-137 106 -16 -1 -187 -2 -380 -3 l-350 -2 -84 -80 c-73 -70 -88 -80 -120 -80
-27 0 -44 8 -66 29 -45 45 -35 111 21 144 38 23 69 21 96 -4 l23 -22 38 31
c21 16 46 38 55 49 16 18 38 18 425 18 l407 0 143 -158z m3051 110 c45 -45 49
-46 65 -30 26 26 90 23 121 -6 53 -49 37 -129 -30 -157 -31 -13 -39 -13 -69 2
-19 9 -44 31 -55 49 -11 18 -40 49 -64 69 l-44 36 -384 0 -385 0 -49 -52
c-168 -179 -160 -169 -140 -183 18 -13 17 -15 -3 -44 l-22 -30 -44 31 c-25 18
-45 37 -45 42 0 21 36 64 160 195 l125 131 408 -3 408 -3 47 -47z m-609 -202
c60 -30 59 -111 -1 -144 -23 -13 -33 -14 -60 -3 -32 12 -33 12 -110 -65 l-78
-77 -21 20 -20 21 65 63 c36 35 75 69 86 77 12 8 20 25 20 42 0 30 15 53 45
69 27 15 41 15 74 -3z m-2750 -21 c12 -15 21 -37 21 -49 0 -15 27 -47 85 -99
l85 -78 -22 -18 -23 -19 -75 75 c-74 73 -76 74 -106 62 -68 -25 -131 37 -104
102 16 38 35 49 82 50 28 0 41 -6 57 -26z m1447 6 c149 -11 240 -30 381 -76
347 -115 658 -352 893 -683 33 -46 60 -90 60 -97 0 -11 -18 -14 -77 -14 -103
0 -125 7 -118 34 2 11 2 15 -1 9 -6 -14 -25 -18 -22 -5 3 13 -14 63 -20 58 -3
-3 -13 12 -23 33 -26 59 -298 323 -380 369 -24 13 -56 33 -71 43 -24 18 -48
25 -48 14 0 -2 5 -16 12 -29 16 -37 -4 -99 -42 -126 -29 -20 -30 -25 -30 -96
l0 -74 43 0 c31 0 49 6 62 20 18 20 17 20 -8 20 -16 0 -31 8 -37 21 -25 46 18
102 60 79 20 -11 38 -56 26 -67 -3 -3 4 -11 16 -17 38 -20 44 -40 23 -85 l-18
-41 -261 0 -261 0 -80 -80 c-71 -72 -83 -80 -117 -80 -61 0 -48 26 67 138
l104 102 145 -6 145 -6 7 26 c11 45 -5 134 -25 141 -33 10 -63 52 -63 88 0 69
39 113 112 128 33 6 32 7 -15 8 -53 1 -128 25 -159 50 -19 16 -19 15 -3 -9 28
-41 19 -116 -18 -153 -13 -13 -36 -17 -105 -17 l-88 0 -49 -59 c-69 -85 -103
-93 -103 -23 0 31 9 45 61 98 44 44 60 67 55 79 -5 15 -9 15 -40 -4 -41 -26
-104 -27 -171 -5 -37 13 -52 14 -66 5 -10 -6 -53 -11 -95 -11 -71 0 -75 1 -72
21 2 12 20 36 40 52 56 45 126 49 213 12 l66 -28 42 20 c48 24 117 37 146 28
14 -4 21 -19 26 -55 l7 -50 39 0 c36 0 39 2 29 19 -5 11 -10 33 -10 50 0 26 5
32 33 40 30 9 29 9 -23 11 -91 4 -286 -7 -301 -16 -5 -2 -39 1 -76 7 -53 9
-92 9 -183 -2 -63 -7 -121 -12 -127 -11 -7 2 -2 -8 12 -22 46 -46 22 -106 -41
-106 -40 0 -58 26 -52 75 3 31 2 32 -17 20 -11 -7 -32 -15 -47 -19 -15 -3 -42
-19 -60 -35 -28 -23 -45 -29 -107 -34 -67 -6 -78 -9 -110 -41 -20 -19 -61 -44
-91 -57 -48 -19 -168 -119 -170 -140 0 -3 -28 -36 -62 -72 -35 -37 -74 -80
-87 -97 -13 -17 -29 -29 -35 -27 -7 3 -23 -15 -36 -38 -13 -24 -28 -42 -32
-39 -4 3 -8 -2 -8 -10 0 -9 -4 -16 -9 -16 -9 0 -21 -48 -22 -82 0 -21 -15 -24
-22 -5 -3 6 -5 -1 -5 -18 1 -54 -2 -66 -12 -60 -6 3 -7 -1 -4 -9 3 -9 1 -16
-5 -16 -15 0 -44 -67 -35 -81 3 -6 -2 -9 -11 -7 -10 2 -20 -3 -23 -11 -3 -8 0
-11 7 -7 6 4 11 3 11 -3 0 -5 -5 -11 -10 -13 -6 -2 -12 -13 -13 -26 0 -12 -5
-22 -10 -22 -4 0 -5 -4 -2 -10 3 -5 -2 -10 -12 -11 -11 0 -13 -3 -5 -6 9 -4
10 -8 2 -18 -6 -7 -10 -17 -9 -21 4 -24 -2 -44 -12 -38 -8 5 -8 1 0 -13 7 -14
7 -23 -1 -31 -9 -9 -9 -12 1 -12 7 0 9 -4 6 -10 -3 -5 1 -10 9 -10 10 0 13 -6
10 -15 -4 -8 -14 -15 -23 -15 -14 0 -14 2 -1 11 12 9 11 9 -5 4 -11 -4 -28 -7
-37 -7 -10 0 -18 -3 -18 -8 0 -5 8 -7 18 -5 13 2 17 -4 17 -25 1 -22 -4 -27
-22 -27 -13 0 -39 -13 -58 -27 -38 -30 -49 -26 -12 4 21 18 21 19 1 14 -21 -6
-21 -6 -7 98 44 327 153 571 358 801 261 294 560 478 910 563 170 41 295 49
491 34z m-1892 -24 c47 -20 72 -76 57 -128 -14 -46 -19 -38 166 -235 l123
-130 -66 -84 c-37 -46 -87 -119 -112 -161 -42 -73 -47 -78 -79 -78 l-34 0 32
58 c51 91 98 159 144 210 l42 46 -134 147 -134 146 -47 -5 c-59 -5 -96 21
-113 78 -10 34 -9 46 6 81 29 63 82 83 149 55z m3641 -2 c35 -16 65 -65 65
-106 0 -30 -33 -84 -61 -98 -11 -7 -41 -10 -66 -8 l-45 3 -121 -133 c-67 -74
-126 -140 -131 -147 -7 -9 6 -32 41 -76 58 -74 163 -228 163 -241 0 -4 -15 -8
-34 -8 -31 0 -37 5 -67 58 -38 69 -126 188 -163 221 -14 14 -26 28 -26 31 0 4
68 81 150 170 104 113 149 168 145 179 -25 65 -10 122 39 152 38 23 68 24 111
3z m-4441 -50 c12 -5 16 -21 16 -75 l0 -69 115 0 c112 0 115 1 158 31 101 71
239 12 264 -112 5 -25 38 -68 129 -164 110 -116 122 -131 109 -145 -12 -13
-15 -56 -15 -219 l0 -202 -32 3 c-30 3 -33 6 -36 41 l-3 37 -142 0 -143 0 -26
-30 c-19 -21 -35 -30 -58 -30 -22 0 -41 9 -62 30 -25 26 -37 30 -82 30 l-52 0
-208 215 c-114 118 -213 215 -221 215 -17 0 -29 78 -14 96 6 8 15 14 19 14 12
0 427 -427 443 -456 12 -22 94 -18 124 6 14 11 38 20 53 20 15 0 39 -9 53 -20
23 -18 40 -20 171 -20 l146 0 0 148 -1 147 -89 92 -89 93 -20 -29 c-43 -61
-133 -78 -203 -39 -55 31 -82 80 -82 145 l1 53 -103 0 -104 0 0 -75 0 -75 -30
0 -30 0 0 80 0 80 -60 0 c-53 0 -60 2 -60 20 0 18 7 20 60 20 l60 0 0 68 c0
82 5 91 44 76z m5166 -69 l0 -75 65 0 c58 0 65 -2 65 -20 0 -18 -7 -20 -65
-20 l-65 0 0 -80 c0 -79 0 -80 -25 -80 -25 0 -25 1 -25 81 l0 82 -37 -7 c-21
-3 -69 -6 -107 -6 -68 0 -68 0 -62 -25 15 -61 -37 -155 -101 -181 -63 -27
-125 -12 -186 45 l-29 26 -78 -85 -79 -85 -1 -155 0 -155 87 4 c67 2 93 8 114
23 31 23 87 19 109 -7 9 -11 34 -15 94 -15 l81 0 236 236 c219 219 238 235
257 223 16 -10 19 -19 14 -48 -3 -21 -14 -42 -26 -50 -12 -8 -116 -108 -232
-223 -118 -116 -219 -208 -230 -209 -10 -1 -52 0 -92 1 -69 2 -74 0 -101 -29
-39 -42 -82 -42 -123 -1 -28 28 -34 30 -108 30 l-79 0 -3 -37 c-3 -36 -5 -38
-38 -38 l-35 0 4 192 c3 168 2 196 -13 218 l-17 26 120 128 c67 71 121 136
121 145 0 28 30 90 57 118 55 57 147 60 208 7 33 -30 33 -30 152 -27 l118 3 3
73 c3 69 4 72 27 72 24 0 25 -2 25 -75z m-3856 -147 l26 -23 -36 -38 c-20 -21
-36 -37 -37 -35 -1 2 -13 15 -26 31 l-25 27 29 30 c34 36 37 36 69 8z m2584
-6 l33 -27 -25 -24 c-24 -23 -25 -23 -50 -5 -34 26 -40 43 -20 65 22 24 22 24
62 -9z m-2008 -117 c0 -11 -15 -35 -33 -53 l-32 -32 -34 21 c-28 17 -32 24
-26 47 10 41 32 70 57 74 29 5 68 -28 68 -57z m1532 0 c13 -19 30 -35 39 -35
22 0 45 -28 57 -70 6 -21 38 -64 81 -109 l71 -73 0 -62 c0 -77 -18 -106 -64
-106 -45 0 -48 7 -26 51 26 50 25 68 -5 104 l-24 30 -1 -32 c0 -25 -13 -46
-56 -92 l-55 -60 -315 0 c-172 -1 -314 2 -314 6 0 4 14 22 32 40 l32 33 266 0
266 0 29 30 c66 69 46 180 -51 282 -55 57 -56 60 -39 78 27 29 52 24 77 -15z
m-1742 -92 l-19 -33 75 0 c78 0 103 -8 142 -43 16 -15 22 -32 22 -64 0 -63
-24 -68 -70 -15 l-36 42 -122 0 c-96 0 -124 3 -128 14 -3 8 15 42 40 76 25 34
46 66 46 70 0 16 35 17 53 2 16 -14 16 -17 -3 -49z m1352 26 c45 -48 49 -81
13 -105 -37 -24 -75 -6 -75 36 l0 30 -69 0 -68 0 -77 -80 c-42 -44 -76 -85
-76 -91 0 -6 -14 -9 -32 -7 -31 3 -33 5 -30 38 2 30 18 49 98 128 l95 92 92 0
91 0 38 -41z m-609 -1141 c-2 -623 -4 -1173 -6 -1223 -4 -109 -35 -183 -105
-246 -84 -79 -104 -83 -392 -89 -303 -7 -390 0 -464 33 -101 47 -173 144 -196
267 -5 29 -10 104 -10 166 l0 114 165 0 165 0 1 -87 c1 -180 18 -193 261 -193
92 0 178 4 192 10 14 5 33 21 43 36 16 25 17 95 19 1138 1 611 2 1132 3 1159
l1 47 163 0 162 0 -2 -1132z m-631 883 c31 -28 63 -49 74 -48 15 2 20 -5 22
-35 l3 -38 -49 0 c-48 0 -52 2 -92 50 l-41 49 -137 3 -137 3 -3 33 -3 32 155
0 154 0 54 -49z m3518 -86 c0 -34 1 -35 39 -35 51 0 71 -26 71 -95 0 -69 -20
-97 -68 -93 -46 4 -57 33 -18 48 44 16 50 92 8 98 -17 3 -25 -2 -29 -17 -4
-15 -13 -21 -34 -21 l-29 0 0 75 0 75 30 0 c28 0 30 -3 30 -35z m-3916 2 c17
-13 17 -16 -13 -69 -41 -73 -65 -95 -86 -78 -27 22 -19 85 16 125 33 37 54 43
83 22z m289 -27 c14 -11 32 -36 38 -55 l13 -35 79 0 78 0 -3 -37 -3 -38 -80 3
-80 3 -20 -33 c-17 -28 -27 -33 -65 -36 -39 -3 -52 -10 -98 -55 -29 -29 -69
-73 -88 -98 -33 -45 -34 -50 -34 -135 0 -136 1 -134 -81 -134 -61 0 -69 -2
-69 -19 0 -53 -77 -51 -91 2 -4 16 -4 40 2 54 5 13 9 79 9 145 l0 121 82 101
c45 56 114 138 152 183 l71 83 81 0 c67 0 86 -4 107 -20z m-1835 -20 c25 -15
32 -27 32 -50 0 -24 -4 -30 -22 -30 -12 0 -32 12 -43 27 -17 21 -27 25 -48 19
-60 -15 -36 -103 25 -94 16 3 33 0 38 -7 16 -19 -7 -39 -45 -39 -100 0 -124
146 -30 185 33 13 58 10 93 -11z m4263 -152 c63 -162 83 -230 105 -359 14 -84
14 -102 3 -116 -8 -9 -9 -14 -3 -10 15 9 25 -38 11 -52 -8 -8 -7 -11 1 -11 7
0 12 -5 12 -12 0 -9 -3 -9 -11 -1 -13 13 -42 6 -33 -8 3 -5 10 -7 15 -4 5 4 9
1 9 -4 0 -13 -10 -14 -28 -3 -7 5 -10 15 -7 23 4 10 -1 15 -15 16 -11 1 -19
-1 -17 -5 1 -4 -1 -8 -5 -9 -5 -2 -7 -1 -5 2 1 2 -7 11 -18 18 -18 14 -18 15
5 12 14 -2 31 -5 39 -6 7 -2 16 2 18 9 3 7 1 12 -4 11 -30 -5 -53 3 -53 19 0
14 -2 15 -10 2 -8 -12 -10 -9 -8 10 2 14 8 28 13 32 6 5 3 8 -7 8 -9 0 -20 4
-23 10 -4 6 1 7 11 3 13 -5 15 -2 9 15 -4 15 -2 22 7 22 7 0 -2 10 -19 23 -28
19 -32 27 -30 59 2 20 0 35 -4 33 -3 -3 -9 12 -13 33 -6 41 -8 372 -2 372 3 0
28 -60 57 -132z m-4481 -13 c0 -34 3 -90 6 -124 l7 -61 563 0 564 0 0 -40 0
-40 -627 2 -628 3 -3 150 c-1 82 0 155 2 162 3 8 25 12 61 12 l55 -1 0 -63z
m5988 -97 l-3 -163 -617 -3 -618 -2 0 40 0 40 549 0 c397 0 552 3 557 11 4 6
9 63 12 125 l5 114 59 0 58 0 -2 -162z m-1783 54 c-79 -66 -249 -220 -280
-251 l-39 -41 -258 0 -258 0 -2 -67 c-5 -202 -6 -405 -1 -455 l5 -58 292 0
c270 0 297 -2 354 -21 l62 -21 0 -547 0 -547 -30 -47 c-32 -51 -97 -102 -163
-129 -37 -15 -91 -17 -466 -17 l-424 -1 158 153 158 152 246 5 246 5 3 357 2
357 -277 3 c-270 3 -279 4 -327 27 -61 30 -107 76 -137 137 -24 49 -24 49 -24
419 0 369 0 370 24 423 30 66 107 137 170 156 37 12 138 15 511 15 255 1 460
-3 455 -7z m-1940 -25 c8 -32 -10 -74 -34 -82 -30 -9 -26 -40 10 -65 25 -19
30 -28 27 -58 -5 -56 -31 -54 -94 9 -30 29 -54 59 -54 66 0 9 -15 13 -47 13
-63 0 -103 -36 -103 -92 0 -25 -5 -41 -15 -44 -9 -4 -15 -19 -15 -40 0 -33 1
-34 40 -34 29 0 42 -5 50 -19 21 -41 11 -64 -57 -133 l-67 -68 -93 0 -93 0
-37 -50 c-37 -50 -48 -56 -69 -42 -36 24 -24 64 39 130 l41 42 91 0 c91 0 91
0 124 34 l34 35 -34 3 -34 3 -3 106 -3 106 67 71 66 72 72 0 c67 0 74 2 101
30 36 38 82 41 90 7z m-97 -290 l83 -83 -49 -65 c-28 -35 -90 -106 -138 -157
l-89 -94 -94 -5 -93 -5 -52 -56 c-57 -60 -78 -64 -90 -16 -6 24 0 35 56 91
l62 63 86 0 85 0 90 93 c50 52 97 106 105 121 14 27 13 29 -48 88 -64 62 -71
75 -50 96 26 26 54 11 136 -71z m2312 -11 c0 -3 -4 -8 -10 -11 -5 -3 -10 -1
-10 4 0 6 5 11 10 11 6 0 10 -2 10 -4z m-4110 -24 c20 -11 46 -38 60 -63 l25
-44 117 3 118 3 15 30 c20 37 70 69 110 69 40 0 90 -32 110 -70 l16 -30 95 0
95 0 -3 -32 -3 -33 -91 -3 c-89 -3 -90 -3 -108 -33 -23 -38 -72 -69 -111 -69
-41 0 -91 33 -116 75 l-21 35 -109 0 c-96 0 -110 -2 -115 -17 -22 -74 -90
-133 -154 -133 -37 0 -110 40 -134 73 -16 21 -21 44 -21 86 0 129 119 209 225
153z m5299 -13 c46 -34 71 -79 71 -129 0 -79 -56 -152 -129 -166 -68 -14 -161
47 -176 116 l-7 30 -104 0 c-103 0 -104 0 -118 -27 -40 -78 -122 -104 -186
-61 -19 13 -40 35 -47 48 -11 23 -18 25 -110 30 l-98 5 -3 33 -3 32 99 0 99 0
31 38 c59 74 135 80 191 16 17 -19 31 -39 31 -44 0 -6 45 -10 108 -10 l109 0
24 37 c13 21 40 48 59 61 45 30 111 27 159 -9z m-4277 -103 c-2 -5 2 -12 8
-16 9 -5 9 -9 1 -14 -10 -7 -16 6 -12 28 2 8 -5 6 -45 -11 -6 -2 -14 2 -17 10
-4 12 3 15 31 13 20 0 35 -5 34 -10z m-95 -48 c-3 -7 -5 -2 -5 12 0 14 2 19 5
13 2 -7 2 -19 0 -25z m76 15 c-15 -5 -18 -33 -4 -33 5 0 11 6 14 13 2 6 8 8
13 4 11 -10 -16 -28 -36 -24 -8 2 -14 8 -13 15 2 6 -4 9 -12 6 -10 -4 -13 -2
-10 7 3 8 18 15 33 15 15 1 21 -1 15 -3z m-59 -85 c8 -6 8 -8 -1 -8 -6 0 -14
-8 -16 -17 -3 -10 -5 0 -5 22 0 22 2 33 5 25 3 -8 11 -18 17 -22z m940 26 c10
-4 16 -18 16 -36 0 -24 -15 -46 -74 -107 l-74 -76 69 -72 69 -73 0 -106 0
-106 -69 -77 c-69 -76 -100 -93 -128 -69 -22 18 -15 32 52 100 l65 65 0 82 0
83 -54 56 c-44 46 -57 55 -67 45 -9 -9 -45 -13 -105 -13 l-93 0 -63 -70 c-35
-38 -68 -70 -75 -70 -18 0 -43 29 -43 50 0 11 7 25 15 32 9 7 43 41 77 76 l62
62 88 0 88 0 82 86 c46 47 91 99 101 115 19 29 32 34 61 23z m2347 -17 c-10
-9 -11 -8 -5 6 3 10 9 15 12 12 3 -3 0 -11 -7 -18z m-3226 -37 c-3 -6 -12 -10
-18 -9 -9 0 -9 2 -1 5 7 3 10 15 7 27 -4 20 -3 20 7 4 6 -9 8 -22 5 -27z
m-1268 -224 c17 -142 49 -284 128 -564 225 -799 609 -1468 1170 -2041 409
-418 817 -715 1338 -977 103 -52 195 -94 203 -94 8 0 92 37 187 83 553 267
1041 637 1462 1109 170 190 225 261 352 449 201 300 349 570 470 859 155 369
307 890 353 1208 l12 82 70 0 70 0 -7 -42 c-16 -106 -78 -412 -105 -517 -127
-502 -338 -1020 -579 -1421 -84 -140 -313 -466 -397 -567 -204 -243 -388 -432
-595 -610 -249 -213 -525 -413 -551 -397 -6 4 -8 3 -4 -4 16 -26 -571 -345
-636 -345 -16 0 -24 -3 -18 -7 5 -3 -9 -15 -33 -27 -37 -18 -47 -19 -67 -8
-17 9 -20 14 -9 19 8 3 5 4 -7 1 -40 -10 -410 180 -684 350 -465 290 -872 655
-1262 1130 -482 588 -855 1439 -982 2242 -36 223 -39 205 41 201 l68 -3 12
-109z m2163 59 l0 -56 -35 28 -36 28 31 28 c17 15 32 27 35 27 3 0 5 -25 5
-55z m-1358 -15 l229 0 -3 -52 c-3 -52 -4 -53 -35 -56 -25 -2 -33 1 -33 12 0
14 -28 16 -231 16 -217 0 -234 -1 -265 -21 -30 -18 -34 -26 -34 -61 0 -127
-179 -177 -244 -68 -20 35 -21 102 -1 140 29 56 121 78 186 44 30 -15 31 -14
71 22 38 34 44 36 86 30 25 -3 148 -6 274 -6z m4410 -27 c38 -37 38 -37 67
-20 16 10 50 17 76 17 42 0 52 -5 86 -39 33 -32 39 -45 39 -80 0 -81 -58 -141
-136 -141 -73 0 -139 65 -132 130 2 20 -5 37 -21 54 l-24 26 -229 0 c-196 0
-228 -2 -228 -15 0 -10 -11 -15 -35 -15 l-35 0 0 60 0 60 267 0 267 0 38 -37z
m-3263 -143 c68 -69 41 -184 -49 -211 -33 -10 -47 -9 -85 5 -87 34 -107 148
-38 212 21 20 37 24 84 24 51 0 61 -4 88 -30z m-1208 -136 c24 -23 29 -24 187
-24 l162 0 0 -45 0 -45 -102 1 c-57 0 -139 4 -184 7 -72 6 -83 10 -105 36
l-25 29 -100 -108 c-65 -70 -98 -114 -97 -127 4 -26 -22 -75 -46 -88 -59 -31
-131 11 -131 76 0 51 30 76 105 86 11 2 67 53 125 113 58 61 112 113 120 117
23 11 63 -1 91 -28z m4365 -79 c63 -67 115 -115 126 -115 27 0 75 -26 82 -45
33 -86 -47 -166 -123 -125 -25 13 -45 64 -37 95 6 22 -6 38 -85 120 l-92 96
-32 -31 -31 -30 -142 0 -142 0 0 45 0 45 139 0 139 0 12 30 c10 25 18 30 45
30 30 0 46 -13 141 -115z m-4058 -719 l-3 -453 408 -413 407 -412 0 -127 0
-127 30 -17 c35 -21 56 -81 41 -120 -11 -28 -54 -65 -87 -73 -37 -9 -94 15
-115 50 -30 47 -20 102 25 142 l36 31 0 99 0 100 -178 179 c-97 99 -282 286
-410 417 l-232 236 0 431 0 432 -117 -3 -118 -3 -3 -224 -2 -223 25 -26 c44
-43 27 -134 -30 -160 -77 -35 -155 14 -155 97 0 31 42 91 65 91 17 0 24 147
17 363 l-5 167 202 0 201 0 -2 -454z m3421 -8 c1 -182 2 -188 26 -224 46 -68
22 -154 -51 -189 -87 -41 -186 35 -171 132 7 43 49 90 87 98 l27 6 6 127 c4
70 7 187 7 260 0 82 4 131 9 127 6 -3 16 5 23 17 14 25 14 26 19 78 4 57 16
-231 18 -432z m531 197 c0 -155 4 -265 9 -265 5 0 23 -12 40 -26 26 -22 31
-33 31 -71 0 -133 -189 -140 -207 -7 -4 36 -1 45 26 76 l31 36 -2 219 -3 218
-112 3 -113 3 0 -433 c0 -238 -4 -439 -9 -447 -5 -7 -187 -192 -405 -410
l-396 -397 0 -112 c0 -71 4 -112 10 -112 6 0 22 -12 35 -26 31 -33 33 -86 5
-132 -57 -92 -201 -49 -200 61 1 46 11 64 53 91 l27 18 0 125 0 124 223 227
c215 219 434 435 527 519 42 39 45 44 51 109 3 38 4 250 1 472 l-5 402 191 0
192 0 0 -265z m-3741 180 c10 5 21 -218 21 -407 0 -123 2 -139 18 -144 72 -22
112 -69 112 -132 0 -42 -39 -94 -84 -111 -107 -41 -208 85 -147 185 17 27 19
63 26 342 l7 312 20 -25 c11 -14 23 -23 27 -20z m-779 -200 c57 -29 66 -87 23
-134 -38 -41 -73 -48 -104 -21 -20 18 -21 21 -4 15 46 -16 54 -16 74 4 40 40
18 121 -34 121 -11 0 -26 -5 -33 -12 -6 -6 -15 -8 -19 -4 -10 9 33 46 54 46 8
0 27 -7 43 -15z m4781 -13 c9 -9 20 -28 24 -41 7 -23 6 -23 -26 7 -40 37 -57
39 -93 11 -18 -14 -26 -30 -26 -53 0 -41 15 -56 57 -56 36 0 44 -15 14 -25
-40 -12 -102 43 -101 92 1 27 24 64 51 79 29 17 78 10 100 -14z m-1149 -459
c-33 -38 -171 -178 -305 -311 -247 -246 -265 -260 -291 -219 -9 15 16 43 184
205 248 239 341 323 352 316 5 -3 7 0 6 8 -2 8 9 14 28 16 17 2 42 14 55 28
12 13 24 24 27 24 2 0 -23 -30 -56 -67z m-2425 -101 c10 2 17 10 16 16 -6 26
20 7 124 -90 325 -305 367 -356 312 -373 -18 -6 -47 18 -173 143 -83 83 -194
192 -246 243 -52 50 -85 84 -73 75 12 -10 30 -16 40 -14z m-898 -78 c17 -14
31 -35 31 -46 0 -27 22 -52 219 -253 91 -94 190 -196 219 -228 31 -33 62 -57
74 -57 26 0 85 -59 94 -93 19 -77 -41 -157 -117 -157 -54 0 -93 22 -113 64
-23 48 -20 87 10 131 l25 38 -197 201 c-109 110 -210 213 -224 227 -21 21 -32
25 -65 21 -31 -3 -46 1 -65 18 -22 19 -22 20 -3 11 73 -36 149 23 108 85 -20
31 -53 44 -82 33 -25 -9 -30 0 -11 19 20 20 65 14 97 -14z m4165 10 c4 -11 1
-14 -13 -9 -29 9 -70 -12 -82 -42 -15 -40 9 -86 53 -100 l33 -11 -31 -1 c-28
-1 -60 -30 -249 -227 -209 -218 -216 -226 -199 -245 24 -27 30 -108 10 -147
-48 -92 -183 -79 -221 22 -17 44 -17 46 4 88 21 44 63 78 98 78 10 0 40 26 67
58 26 31 130 140 230 242 165 168 181 188 178 216 -4 45 39 94 83 94 21 0 35
-6 39 -16z m-2862 -961 c3 -335 1 -383 -12 -383 -8 0 -25 -3 -37 -6 l-23 -6 0
368 0 369 -240 233 c-132 129 -240 237 -240 241 0 5 9 20 21 35 l21 26 254
-246 254 -247 2 -384z m808 830 c90 -45 165 -62 304 -70 l119 -6 -6 -176 c-5
-173 -16 -238 -54 -339 -14 -38 -19 -42 -43 -39 -24 4 -31 -3 -70 -69 -24 -40
-69 -100 -101 -132 -63 -63 -187 -152 -213 -152 -22 0 -109 54 -184 114 -34
27 -71 50 -82 51 -27 2 -114 93 -143 151 -56 110 -75 218 -78 439 l-2 150 105
6 c128 7 223 30 308 73 36 18 67 32 70 32 3 -1 34 -16 70 -33z m1215 11 l17
-27 -236 -236 -236 -236 0 -363 0 -362 -40 0 -40 0 0 379 0 379 253 246 c138
135 255 246 258 246 4 0 14 -12 24 -26z m-2331 -331 c-9 -21 -20 -50 -26 -65
-5 -16 -13 -28 -17 -28 -4 0 -24 18 -45 39 l-39 40 39 10 c22 6 50 18 64 26
38 22 42 18 24 -22z m2184 10 c23 -3 44 -9 47 -13 5 -9 -83 -95 -90 -88 -5 5
-45 108 -45 117 0 2 10 0 23 -3 12 -3 41 -9 65 -13z m-1661 -263 c1 0 9 -26
18 -57 21 -72 76 -183 121 -245 53 -71 143 -150 269 -234 l115 -76 113 75
c215 144 343 300 388 479 7 27 20 53 29 57 24 13 90 23 90 14 -2 -67 -92 -334
-107 -319 -3 2 0 14 7 25 8 16 8 21 -1 21 -8 0 -8 4 1 15 10 13 9 15 -10 15
-19 0 -21 4 -15 31 7 31 7 31 -12 13 -10 -10 -35 -44 -56 -75 -75 -111 -226
-250 -364 -332 l-61 -37 -104 68 c-268 178 -358 287 -421 507 -14 48 -15 49
-24 25 -8 -17 -7 -29 0 -38 8 -10 4 -19 -15 -37 l-25 -23 -12 56 c-7 32 -15
67 -18 79 -5 23 -5 23 43 8 27 -8 50 -15 51 -15z m-23 -220 c5 -20 3 -19 -8 5
-7 17 -16 41 -20 55 -5 20 -3 19 8 -5 7 -16 16 -41 20 -55z m-715 5 c21 -21
18 -73 -7 -97 -42 -43 -123 -13 -122 46 1 61 85 94 129 51z m2642 -6 c37 -37
2 -119 -51 -119 -28 0 -59 32 -66 66 -8 40 22 74 66 74 17 0 39 -9 51 -21z
m-1050 -660 c-133 -130 -241 -240 -241 -244 0 -5 -12 -22 -27 -37 -38 -39 -83
-38 -117 3 -14 17 -26 34 -26 38 0 7 -166 173 -380 378 l-105 101 3 82 4 83
42 -42 c33 -33 42 -47 39 -69 -4 -24 22 -53 210 -240 211 -211 214 -213 241
-201 21 10 34 10 59 1 37 -14 15 -32 285 233 169 166 173 171 167 204 -6 30
-2 38 37 78 l43 44 3 -88 4 -88 -241 -236z m-993 166 c54 -62 2 -165 -83 -165
-14 0 -39 13 -57 29 -27 24 -33 36 -33 69 0 91 113 135 173 67z m1477 0 c34
-33 33 -84 -1 -124 -21 -26 -33 -31 -68 -31 -56 0 -91 34 -91 90 0 56 35 90
92 90 33 0 50 -6 68 -25z m-1136 -331 c27 -35 26 -59 -4 -89 -30 -30 -54 -31
-89 -4 -19 15 -26 30 -26 54 0 63 80 89 119 39z m755 4 c22 -31 20 -58 -6 -85
-24 -26 -88 -32 -106 -10 -41 49 -8 117 58 117 29 0 43 -6 54 -22z"/>
<path d="M3974 7916 c-34 -15 -44 -33 -44 -75 0 -39 8 -42 37 -15 14 13 43 31
64 41 42 20 46 25 27 41 -24 18 -53 21 -84 8z"/>
<path d="M3984 6746 c-10 -26 4 -48 28 -44 17 2 23 10 23 28 0 18 -6 26 -23
28 -13 2 -25 -3 -28 -12z"/>
<path d="M3225 7340 c-27 -30 -25 -88 4 -111 32 -26 67 -24 96 6 31 30 33 77
5 105 -27 27 -81 26 -105 0z"/>
<path d="M2837 7184 c-25 -25 8 -70 43 -59 32 10 24 59 -10 63 -14 2 -29 0
-33 -4z"/>
<path d="M3074 6756 c-12 -31 0 -51 31 -51 27 0 30 3 30 30 0 25 -4 30 -28 33
-17 2 -29 -2 -33 -12z"/>
<path d="M4714 7359 c-26 -9 -54 -46 -54 -70 0 -28 49 -79 76 -79 53 0 90 71
64 120 -13 23 -59 39 -86 29z"/>
<path d="M5131 7171 c-14 -26 9 -56 36 -47 26 8 37 34 22 52 -16 20 -47 17
-58 -5z"/>
<path d="M4874 6756 c-11 -28 1 -51 25 -51 32 0 49 28 32 49 -17 20 -50 21
-57 2z"/>
<path d="M2541 7124 c-24 -31 -25 -42 -7 -66 16 -22 59 -23 76 -3 18 22 15 66
-6 82 -26 19 -40 16 -63 -13z"/>
<path d="M5426 7124 c-17 -45 1 -84 39 -84 28 0 45 19 45 50 0 14 -5 31 -12
38 -17 17 -65 15 -72 -4z"/>
<path d="M1780 6920 c-38 -38 -16 -100 35 -100 26 0 55 33 55 62 0 22 -34 58
-55 58 -8 0 -24 -9 -35 -20z"/>
<path d="M6190 6932 c-41 -12 -52 -68 -20 -97 42 -38 107 15 82 69 -11 24 -36
36 -62 28z"/>
<path d="M1309 6755 c-25 -13 -59 -69 -59 -95 0 -51 74 -107 125 -94 63 16 97
111 57 160 -35 44 -78 54 -123 29z m100 -51 c12 -15 21 -32 21 -39 0 -27 -41
-65 -70 -65 -38 0 -60 24 -60 65 0 62 71 87 109 39z"/>
<path d="M6610 6757 c-34 -17 -63 -79 -55 -116 16 -75 122 -105 171 -48 37 43
33 100 -10 143 -36 36 -65 42 -106 21z m76 -35 c15 -10 34 -47 34 -66 0 -53
-96 -77 -126 -31 -36 56 37 134 92 97z"/>
<path d="M1802 6538 c-7 -7 -12 -19 -12 -28 0 -13 7 -15 30 -12 22 3 32 0 37
-14 7 -17 33 -32 33 -19 0 14 -57 54 -70 50 -12 -5 -12 -3 -3 6 9 9 20 6 47
-11 39 -23 45 -18 20 18 -17 24 -62 30 -82 10z"/>
<path d="M1805 6470 c3 -5 16 -10 27 -10 26 0 16 13 -13 17 -12 2 -18 -1 -14
-7z"/>
<path d="M6134 6544 c-18 -15 -18 -15 4 -9 16 5 22 2 22 -10 0 -9 4 -14 8 -11
5 3 9 -1 9 -9 0 -8 -4 -15 -8 -15 -5 0 -5 -8 -2 -17 6 -15 4 -16 -9 -5 -10 8
-18 9 -22 3 -4 -6 3 -15 14 -21 13 -7 20 -7 20 -1 0 6 6 8 14 5 16 -6 21 0 30
38 5 20 1 33 -14 48 -24 24 -40 25 -66 4z"/>
<path d="M6121 6499 c18 -11 39 -11 39 0 0 5 -12 9 -26 9 -18 0 -22 -3 -13 -9z"/>
<path d="M5372 6358 c-20 -20 -14 -47 12 -54 14 -3 30 -3 35 1 24 14 4 65 -24
65 -6 0 -16 -5 -23 -12z"/>
<path d="M2595 6356 c-27 -20 -15 -51 20 -51 23 0 31 5 33 22 4 29 -28 47 -53
29z"/>
<path d="M4565 6034 c-19 -19 -19 -29 0 -47 17 -18 54 -11 57 9 0 8 1 19 2 25
2 20 -42 30 -59 13z"/>
<path d="M2403 4941 c-10 -16 -9 -20 10 -25 30 -8 41 7 19 27 -16 15 -19 15
-29 -2z"/>
<path d="M2371 4924 c0 -11 3 -14 6 -6 3 7 2 16 -1 19 -3 4 -6 -2 -5 -13z"/>
<path d="M2147 6303 c-36 -41 -18 -93 33 -93 52 0 79 60 42 93 -24 22 -55 22
-75 0z"/>
<path d="M5787 6302 c-23 -25 -21 -58 3 -82 24 -24 38 -25 68 -4 43 30 16 104
-39 104 -9 0 -23 -8 -32 -18z"/>
<path d="M1746 6119 c-29 -34 -31 -45 -16 -84 13 -33 23 -27 67 44 20 31 41
59 47 63 6 4 -8 8 -31 8 -34 0 -46 -5 -67 -31z"/>
<path d="M1740 5485 c-6 -8 -9 -23 -5 -35 8 -25 51 -27 64 -2 20 38 -31 71
-59 37z"/>
<path d="M6128 6145 c-25 -14 -57 -80 -44 -92 3 -4 6 -1 6 6 0 7 5 9 12 5 7
-5 9 -2 6 7 -4 11 9 14 68 13 41 -1 77 2 79 6 10 16 -7 39 -40 54 -40 19 -52
19 -87 1z"/>
<path d="M6087 5493 c-12 -12 -7 -50 8 -63 17 -14 51 -5 59 16 13 35 -41 73
-67 47z"/>
<path d="M2878 5383 c-45 -54 -104 -124 -130 -156 l-48 -60 0 -103 0 -104 35
0 35 0 0 93 0 93 94 106 c71 78 94 110 90 125 -6 24 19 53 46 53 10 0 26 -10
34 -21 20 -29 46 -18 46 19 0 40 -17 52 -71 52 l-47 0 -84 -97z"/>
<path d="M5510 5040 c0 -5 5 -10 10 -10 6 0 10 5 10 10 0 6 -4 10 -10 10 -5 0
-10 -4 -10 -10z"/>
<path d="M5610 4929 c-7 -11 -10 -23 -7 -25 2 -2 9 7 15 21 14 30 7 33 -8 4z"/>
<path d="M5636 4854 c-4 -9 -4 -19 -1 -22 2 -3 7 3 11 12 4 9 4 19 1 22 -2 3
-7 -3 -11 -12z"/>
<path d="M1294 4886 c-58 -58 -42 -141 32 -172 29 -12 39 -12 67 0 72 29 89
111 36 171 -43 48 -87 49 -135 1z m116 -26 c27 -27 25 -66 -5 -95 -29 -30 -54
-32 -83 -5 -26 25 -29 76 -5 102 21 24 68 23 93 -2z"/>
<path d="M1821 4874 c-36 -45 -26 -95 21 -120 52 -27 108 9 108 69 0 40 -36
77 -75 77 -24 0 -39 -7 -54 -26z m109 -26 c13 -25 13 -31 0 -55 -21 -38 -71
-44 -94 -11 -22 30 -20 54 5 79 28 28 69 22 89 -13z"/>
<path d="M6587 4900 c-30 -24 -51 -81 -42 -112 10 -30 34 -57 67 -74 24 -12
32 -12 62 0 45 19 66 52 66 104 0 83 -90 131 -153 82z m98 -40 c26 -29 22 -70
-10 -97 -31 -27 -59 -24 -87 9 -23 27 -23 49 3 82 25 32 68 35 94 6z"/>
<path d="M6100 4880 c-31 -31 -36 -68 -13 -98 43 -57 133 -28 133 43 0 63 -77
98 -120 55z m84 -22 c32 -45 12 -90 -39 -90 -34 0 -55 19 -55 50 0 56 64 83
94 40z"/>
<path d="M1425 4405 c-14 -13 -25 -33 -25 -45 0 -26 43 -70 67 -70 10 0 29 7
41 16 45 31 16 124 -38 124 -12 0 -32 -11 -45 -25z"/>
<path d="M6475 4405 c-14 -13 -25 -33 -25 -45 0 -27 43 -70 70 -70 54 0 83 93
38 124 -32 22 -55 20 -83 -9z"/>
<path d="M2991 4278 c-17 -47 7 -76 54 -64 29 7 44 49 25 71 -20 24 -69 19
-79 -7z"/>
<path d="M1524 3946 c-10 -27 1 -51 26 -54 31 -5 53 23 39 49 -12 22 -57 25
-65 5z"/>
<path d="M6385 3954 c-19 -20 -16 -43 8 -58 20 -13 50 2 55 26 3 16 -23 48
-38 48 -5 0 -16 -7 -25 -16z"/>
<path d="M1812 3278 c-28 -28 -7 -78 33 -78 27 0 45 18 45 45 0 27 -18 45 -45
45 -12 0 -26 -5 -33 -12z"/>
<path d="M2957 1812 c-21 -23 -22 -46 -1 -66 22 -22 60 -20 78 5 35 50 -36
106 -77 61z"/>
<path d="M5527 3152 c-21 -23 -22 -75 -3 -91 8 -7 30 -11 48 -9 70 7 72 109 2
116 -20 2 -36 -3 -47 -16z"/>
<path d="M6117 3272 c-32 -35 -14 -72 35 -72 38 0 55 33 33 66 -18 29 -46 31
-68 6z"/>
<path d="M4986 1814 c-30 -30 -9 -84 33 -84 21 0 51 30 51 52 0 19 -32 48 -53
48 -8 0 -23 -7 -31 -16z"/>
<path d="M2424 3163 c-42 -29 -35 -97 11 -109 33 -8 50 -1 71 31 16 25 16 27
-3 53 -20 27 -58 39 -79 25z"/>
<path d="M2435 2265 c-30 -29 -32 -58 -5 -85 39 -39 100 -14 100 41 0 30 -9
43 -37 58 -29 15 -30 15 -58 -14z"/>
<path d="M5510 2277 c-18 -9 -26 -22 -28 -46 -4 -44 22 -73 62 -69 60 6 75 92
21 116 -31 14 -25 14 -55 -1z"/>
<path d="M3960 2740 c-54 -30 -178 -67 -250 -75 -107 -11 -100 -3 -100 -116 0
-235 53 -402 166 -528 25 -28 86 -80 135 -116 l89 -66 73 47 c94 61 205 174
244 249 63 121 75 175 81 356 l4 166 -88 6 c-102 7 -174 27 -256 68 -32 16
-59 29 -60 29 -2 -1 -19 -10 -38 -20z m86 -132 c67 -29 141 -48 192 -48 38 0
42 -2 42 -25 0 -24 -3 -25 -59 -25 -55 0 -59 -2 -71 -29 -11 -28 -13 -29 -66
-24 -46 5 -54 3 -54 -11 0 -9 8 -16 20 -16 28 0 26 -30 -2 -31 -20 -1 -18 -3
10 -15 33 -15 46 -54 17 -54 -8 0 -15 9 -15 19 0 10 -6 21 -14 24 -10 4 -13
-16 -15 -101 0 -59 -5 -140 -9 -180 -5 -39 -6 -76 -3 -81 15 -24 159 142 202
234 16 33 29 54 29 47 0 -26 -54 -123 -99 -179 -58 -71 -142 -143 -148 -125
-3 6 -8 10 -13 7 -5 -3 -45 29 -89 71 -114 108 -157 207 -177 411 -6 70 -6 72
17 77 134 30 230 58 255 75 1 1 23 -9 50 -21z m231 -140 c-3 -7 -5 -2 -5 12 0
14 2 19 5 13 2 -7 2 -19 0 -25z m-72 -38 c-5 -8 -11 -8 -17 -2 -6 6 -7 16 -3
22 5 8 11 8 17 2 6 -6 7 -16 3 -22z m62 -67 c-3 -10 -5 -4 -5 12 0 17 2 24 5
18 2 -7 2 -21 0 -30z m-10 -45 c-3 -8 -6 -5 -6 6 -1 11 2 17 5 13 3 -3 4 -12
1 -19z m-108 -2 c10 -12 8 -17 -8 -25 -11 -6 -22 -11 -24 -11 -4 0 -2 40 2 48
3 7 20 0 30 -12z"/>
<path d="M3903 2453 c-24 -2 -43 -8 -43 -13 0 -5 19 -10 43 -12 42 -3 42 -3
45 -45 3 -41 2 -42 -33 -49 -43 -8 -41 -28 3 -32 32 -3 32 -3 32 -63 l0 -59
-42 0 -43 -1 24 -19 c13 -11 35 -20 50 -20 l26 0 0 160 c0 101 -4 159 -10 158
-5 -1 -29 -3 -52 -5z"/>
<path d="M3960 2070 c0 -5 5 -10 11 -10 5 0 7 5 4 10 -3 6 -8 10 -11 10 -2 0
-4 -4 -4 -10z"/>
<path d="M2656 1984 c-9 -22 17 -49 39 -40 10 3 15 15 13 28 -4 29 -42 37 -52
12z"/>
<path d="M5305 1980 c-8 -25 1 -40 24 -40 24 0 43 23 35 44 -9 23 -51 20 -59
-4z"/>
<path d="M3977 1152 c-31 -35 27 -74 61 -40 16 16 15 23 -4 42 -20 21 -37 20
-57 -2z"/>
<path d="M3248 1509 c-10 -5 -23 -19 -29 -30 -23 -45 48 -94 80 -55 31 37 -13
107 -51 85z"/>
<path d="M4707 1492 c-32 -35 -14 -72 34 -72 29 0 59 23 59 44 0 19 -34 46
-57 46 -11 0 -27 -8 -36 -18z"/>
<path d="M3606 1174 c-9 -8 -16 -19 -16 -24 0 -11 29 -40 39 -40 4 0 16 9 26
20 17 19 17 21 0 40 -22 24 -29 25 -49 4z"/>
<path d="M4345 1159 c-9 -28 8 -43 38 -35 25 6 42 31 31 47 -3 5 -18 9 -34 9
-20 0 -31 -6 -35 -21z"/>
</g>
</svg>
